<svg xmlns="http://www.w3.org/2000/svg" xmlns:xlink="http://www.w3.org/1999/xlink" viewBox="0,0,256,256" width="50px" height="50px" fill-rule="none"><defs><linearGradient x1="24" y1="8.146" x2="24" y2="41.042" gradientUnits="userSpaceOnUse" id="color-1"><stop offset="0" stop-color="#ffffff" stop-opacity="0.98039"></stop><stop offset="1" stop-color="#343434" stop-opacity="0"></stop></linearGradient><linearGradient x1="14.755" y1="7.267" x2="36.92" y2="29.433" gradientUnits="userSpaceOnUse" id="color-2"><stop offset="0" stop-color="#0005ff"></stop><stop offset="0.133" stop-color="#0005ff"></stop><stop offset="0.239" stop-color="#0005ff"></stop><stop offset="0.373" stop-color="#0005ff"></stop><stop offset="0.482" stop-color="#0005ff"></stop><stop offset="0.621" stop-color="#0005ff"></stop><stop offset="1" stop-color="#0005ff"></stop></linearGradient></defs><g fill="none" fill-rule="none" stroke="none" stroke-width="1" stroke-linecap="butt" stroke-linejoin="miter" stroke-miterlimit="10" stroke-dasharray="" stroke-dashoffset="0" font-family="none" font-weight="none" font-size="none" text-anchor="none" style="mix-blend-mode: normal"><g transform="scale(5.33333,5.33333)"><path d="M5,8h38c0.552,0 1,0.448 1,1v4c0,0.552 -0.448,1 -1,1v0c-1.222,0 -2.337,0.701 -2.866,1.803l-11.851,24.671c-0.174,0.324 -0.512,0.526 -0.88,0.526h-4.785c-0.379,0 -0.725,-0.214 -0.894,-0.553l-10.935,-22.87c-1.096,-2.192 -3.338,-3.577 -5.789,-3.577v0c-0.552,0 -1,-0.448 -1,-1v-4c0,-0.552 0.448,-1 1,-1z" fill="url(#color-1)" fill-rule="nonzero"></path><path d="M6,11.323v-0.323c0,-0.552 0.448,-1 1,-1h18c0.552,0 1,0.448 1,1v0.219c0,0.459 -0.312,0.859 -0.757,0.97l-0.824,0.206c-1.241,0.31 -1.876,1.69 -1.304,2.835l4.345,8.69c0.199,0.398 0.781,0.357 0.922,-0.065l2.846,-8.539c0.426,-1.279 -0.265,-2.662 -1.544,-3.088v0c-0.409,-0.136 -0.684,-0.518 -0.684,-0.949v-0.279c0,-0.552 0.448,-1 1,-1h11.061c0.518,0 0.939,0.421 0.939,0.939v0.384c0,0.404 -0.259,0.763 -0.642,0.891v0c-1.51,0.503 -2.758,1.586 -3.469,3.009l-10.622,23.193c-0.163,0.356 -0.518,0.584 -0.909,0.584h-2.729c-0.385,0 -0.735,-0.221 -0.902,-0.567l-9.874,-20.571c-1.192,-2.484 -3.273,-4.43 -5.831,-5.453l-0.394,-0.158c-0.379,-0.151 -0.628,-0.519 -0.628,-0.928z" fill-opacity="0.98039" fill="#20afe3" fill-rule="evenodd"></path><path d="M39.609,11h-8.338c-0.317,0 -0.417,0.427 -0.134,0.568l0.394,0.197c1.396,0.698 2.023,2.349 1.444,3.797v0v0l-1.375,3.438l-3.201,8.002c-0.158,0.395 -0.705,0.425 -0.906,0.05l-6.044,-11.333c-0.794,-1.489 -0.204,-3.34 1.305,-4.095c0.31,-0.155 0.2,-0.623 -0.147,-0.623h-13.111c-0.42,0 -0.573,0.553 -0.213,0.769c2.422,1.453 4.347,3.604 5.524,6.172l8.926,19.475c0.163,0.355 0.518,0.583 0.909,0.583h0.703c0.398,0 0.758,-0.236 0.917,-0.601l9.405,-21.621v0c0.865,-1.802 2.305,-3.265 4.094,-4.158c0.309,-0.155 0.193,-0.62 -0.152,-0.62z" fill="url(#color-2)" fill-rule="nonzero"></path></g></g></svg>